<svg xmlns="http://www.w3.org/2000/svg" width="600" height="500" viewBox="0 0 600 500"><rect width="100%" height="100%" fill="#DDDDDD"/><path fill="#999999" d="M164.385 245.275q0 5.09-1.7 9.35-1.69 4.25-4.76 7.33-3.08 3.07-7.4 4.76-4.32 1.7-9.6 1.7h-17.63v-46.27h17.63q5.28 0 9.6 1.71 4.32 1.71 7.4 4.77 3.07 3.05 4.76 7.31 1.7 4.26 1.7 9.34Zm-8.83 0q0-3.8-1.01-6.83-1.01-3.02-2.91-5.12-1.91-2.09-4.61-3.21t-6.1-1.12h-8.99v32.57h8.99q3.4 0 6.1-1.12 2.7-1.12 4.61-3.21 1.9-2.1 2.91-5.12 1.01-3.03 1.01-6.84Zm15.42-9.69h7.94v32.83h-7.94v-32.83Zm9.03-9.57q0 1.02-.42 1.92-.42.9-1.1 1.57-.69.67-1.62 1.07-.93.4-1.98.4-1.03 0-1.94-.4-.91-.4-1.58-1.07-.68-.67-1.08-1.57t-.4-1.92q0-1.06.4-1.98.4-.93 1.08-1.6.67-.68 1.58-1.08t1.94-.4q1.05 0 1.98.4.93.4 1.62 1.08.68.67 1.1 1.6.42.92.42 1.98Zm28.8 13.12-1.8 2.85q-.32.51-.67.72-.35.21-.89.21-.58 0-1.24-.32-.65-.32-1.52-.72-.86-.4-1.96-.72-1.11-.32-2.61-.32-2.34 0-3.67.99-1.32.99-1.32 2.59 0 1.06.68 1.78.69.72 1.83 1.26 1.13.54 2.57.98 1.44.43 2.93.94 1.49.51 2.93 1.17 1.44.65 2.58 1.66 1.13 1.01 1.82 2.42.69 1.41.69 3.39 0 2.37-.85 4.37t-2.51 3.45q-1.67 1.46-4.11 2.28-2.45.81-5.65.81-1.7 0-3.31-.3-1.62-.31-3.11-.85-1.49-.54-2.75-1.28t-2.22-1.6l1.82-3.01q.35-.54.83-.83.48-.29 1.22-.29.73 0 1.39.42.66.41 1.52.89.86.48 2.03.9 1.17.42 2.96.42 1.41 0 2.42-.34t1.66-.88q.66-.54.96-1.26.31-.72.31-1.49 0-1.15-.69-1.89t-1.83-1.28q-1.13-.54-2.59-.98-1.45-.43-2.97-.94-1.52-.51-2.98-1.2t-2.59-1.74q-1.14-1.06-1.83-2.6-.68-1.53-.68-3.71 0-2.01.8-3.84.8-1.82 2.35-3.18t3.87-2.18q2.32-.81 5.36-.81 3.39 0 6.18 1.12 2.78 1.12 4.64 2.94Zm14.2 6.05v14.72q1.35 1.63 2.93 2.3 1.59.67 3.44.67 1.79 0 3.23-.67t2.45-2.05q1.01-1.37 1.55-3.47.55-2.09.55-4.94 0-2.88-.47-4.88-.46-2-1.32-3.25-.87-1.25-2.1-1.82-1.23-.58-2.8-.58-2.46 0-4.19 1.04-1.73 1.04-3.27 2.93Zm-1.05-8.16.64 3.04q2.01-2.27 4.57-3.68 2.56-1.41 6.02-1.41 2.69 0 4.91 1.12 2.23 1.12 3.84 3.25 1.62 2.13 2.5 5.25.88 3.12.88 7.15 0 3.68-.99 6.81-1 3.14-2.84 5.44-1.84 2.31-4.44 3.6-2.61 1.3-5.84 1.3-2.76 0-4.71-.85-1.95-.85-3.49-2.35v13.44h-7.9v-43.55h4.83q1.54 0 2.02 1.44Zm29.6-16.16h7.9v47.55h-7.9v-47.55Zm33.15 39.07v-5.54q-3.42.16-5.76.6-2.34.43-3.74 1.1-1.41.67-2.02 1.57-.61.89-.61 1.95 0 2.08 1.23 2.98 1.24.89 3.22.89 2.43 0 4.21-.88 1.77-.88 3.47-2.67Zm-16.7-17.25-1.41-2.53q5.66-5.18 13.63-5.18 2.88 0 5.15.94 2.27.95 3.84 2.63 1.57 1.68 2.39 4.01.81 2.34.81 5.12v20.74h-3.58q-1.12 0-1.73-.34-.61-.33-.96-1.36l-.7-2.36q-1.25 1.12-2.44 1.96-1.18.85-2.46 1.43-1.28.57-2.74.88-1.45.3-3.21.3-2.08 0-3.84-.56-1.76-.56-3.04-1.68-1.28-1.12-1.99-2.78-.7-1.67-.7-3.87 0-1.25.42-2.48.41-1.24 1.36-2.36.94-1.12 2.44-2.11 1.51-.99 3.7-1.73 2.19-.73 5.1-1.2 2.92-.46 6.66-.56v-1.92q0-3.29-1.41-4.88-1.41-1.58-4.06-1.58-1.92 0-3.19.45-1.26.45-2.22 1.01-.96.56-1.74 1-.79.45-1.75.45-.83 0-1.41-.43-.57-.43-.92-1.01Zm55.32-7.1h6.34l-17.89 41.85q-.35.84-.91 1.27-.56.43-1.71.43h-5.89l6.14-13.18-13.28-30.37h6.95q.93 0 1.45.45.53.44.79 1.02l6.97 17.02q.36.87.6 1.73.24.87.46 1.76.29-.89.58-1.77.28-.88.64-1.75l6.59-16.99q.25-.64.85-1.06.59-.41 1.32-.41Zm36.8 15.36h14.72l-5.63-15.39q-.41-1.03-.86-2.44-.45-1.4-.9-3.04-.41 1.64-.86 3.06-.45 1.42-.87 2.48l-5.6 15.33Zm11.75-28.8 18.17 46.27h-6.65q-1.12 0-1.83-.56-.7-.56-1.05-1.39l-3.46-9.44h-19.17l-3.45 9.44q-.26.73-.99 1.34-.74.61-1.83.61h-6.72l18.21-46.27h8.77Zm28.7 15.42.48 3.71q1.54-2.94 3.65-4.62 2.11-1.68 4.99-1.68 2.27 0 3.65.99l-.51 5.92q-.16.58-.47.82-.3.24-.81.24-.48 0-1.43-.16-.94-.16-1.84-.16-1.31 0-2.33.38-1.03.39-1.84 1.11-.82.72-1.44 1.74-.63 1.02-1.17 2.34v20.22h-7.9v-32.83h4.64q1.21 0 1.69.43t.64 1.55Zm23.14 10.66h14.91q0-1.54-.43-2.9-.43-1.36-1.3-2.38-.86-1.03-2.19-1.62-1.33-.59-3.09-.59-3.42 0-5.39 1.95-1.97 1.95-2.51 5.54Zm20.16 4.77h-20.32q.19 2.52.89 4.36.71 1.84 1.86 3.04 1.15 1.2 2.74 1.8 1.58.59 3.5.59t3.31-.45q1.39-.45 2.43-.99 1.04-.55 1.83-.99.78-.45 1.52-.45.99 0 1.47.73l2.27 2.88q-1.31 1.54-2.94 2.58t-3.41 1.66q-1.78.63-3.62.88-1.84.26-3.56.26-3.43 0-6.37-1.14-2.95-1.13-5.12-3.36-2.18-2.22-3.43-5.5-1.24-3.28-1.24-7.6 0-3.36 1.08-6.32 1.09-2.96 3.12-5.15 2.04-2.19 4.96-3.47 2.93-1.28 6.61-1.28 3.11 0 5.73.99 2.62.99 4.51 2.89 1.89 1.91 2.96 4.68 1.07 2.76 1.07 6.32 0 1.79-.38 2.41-.38.63-1.47.63Zm25.12 6.94v-5.54q-3.43.16-5.76.6-2.34.43-3.75 1.1-1.4.67-2.01 1.57-.61.89-.61 1.95 0 2.08 1.23 2.98 1.23.89 3.22.89 2.43 0 4.21-.88 1.77-.88 3.47-2.67Zm-16.71-17.25-1.4-2.53q5.66-5.18 13.63-5.18 2.88 0 5.15.94 2.27.95 3.84 2.63 1.57 1.68 2.38 4.01.82 2.34.82 5.12v20.74h-3.58q-1.12 0-1.73-.34-.61-.33-.96-1.36l-.71-2.36q-1.24 1.12-2.43 1.96-1.18.85-2.46 1.43-1.28.57-2.74.88-1.45.3-3.21.3-2.08 0-3.84-.56-1.76-.56-3.04-1.68-1.28-1.12-1.99-2.78-.7-1.67-.7-3.87 0-1.25.41-2.48.42-1.24 1.36-2.36.95-1.12 2.45-2.11 1.51-.99 3.7-1.73 2.19-.73 5.1-1.2 2.91-.46 6.66-.56v-1.92q0-3.29-1.41-4.88-1.41-1.58-4.06-1.58-1.92 0-3.19.45-1.26.45-2.22 1.01-.96.56-1.75 1-.78.45-1.74.45-.83 0-1.41-.43-.57-.43-.93-1.01Z"/></svg>